#N canvas 689 57 307 379 10;
#X msg 151 320 \; pd dsp 1;
#X obj 56 327 dac~;
#X obj 56 297 *~;
#X obj 56 239 osc~;
#X obj 150 239 vline~;
#X msg 56 9 440;
#X msg 96 202 660;
#X msg 150 211 0.6 100 \, 0 100 150;
#X obj 123 53 t b b;
#X obj 69 96 delay 1000;
#X obj 69 119 t b b;
#X connect 2 0 1 0;
#X connect 2 0 1 1;
#X connect 3 0 2 0;
#X connect 4 0 2 1;
#X connect 5 0 3 0;
#X connect 5 0 8 0;
#X connect 6 0 3 0;
#X connect 7 0 4 0;
#X connect 8 0 9 0;
#X connect 8 1 7 0;
#X connect 9 0 10 0;
#X connect 10 0 7 0;
#X connect 10 1 6 0;
